<svg width="120" height="120" viewBox="0 0 120 120" fill="none" xmlns="http://www.w3.org/2000/svg">
<circle cx="60" cy="60" r="60" fill="#FAFAFA"/>
<path d="M72.4869 106.504C71.0606 106.504 69.7206 105.553 69.3316 104.083C68.8562 102.354 69.8935 100.582 71.6657 100.107C89.2143 95.4817 101.447 79.5755 101.447 61.4218C101.447 39.3779 83.5089 21.4403 61.465 21.4403C42.7493 21.4403 30.4739 32.3757 24.7252 38.9889H37.4329C39.205 38.9889 40.6746 40.4585 40.6746 42.2306C40.6746 44.0028 39.2482 45.5156 37.4329 45.5156H18.285C18.0689 45.5156 17.6798 45.4724 17.3773 45.3859C16.9883 45.2563 16.6425 45.0834 16.3399 44.8673C15.9509 44.6079 15.6483 44.2621 15.4322 43.8731C15.2161 43.4841 15.0432 43.0087 15 42.5332C15 42.4035 15 42.3171 15 42.1874V22.5641C15 20.7919 16.4696 19.3223 18.2417 19.3223C20.0139 19.3223 21.4835 20.7919 21.4835 22.5641V32.8944C28.5289 25.3304 41.7984 15 61.465 15C87.0964 15 107.93 35.8336 107.93 61.465C107.93 82.5579 93.7095 101.057 73.3082 106.417C73.0488 106.46 72.7463 106.504 72.4869 106.504Z" fill="#A1C575"/>
<path d="M58.3961 107.844C58.3097 107.844 58.2233 107.8 58.18 107.8C53.5119 107.498 48.9303 106.46 44.6079 104.775C43.3545 104.299 42.49 103.046 42.5332 101.706C42.5332 101.317 42.6197 100.928 42.7493 100.582C43.3977 98.9396 45.3427 98.1183 46.942 98.7234C50.7024 100.193 54.6357 101.057 58.6123 101.36C60.298 101.447 61.6379 102.916 61.6379 104.645L61.5947 104.818C61.5082 106.504 60.0819 107.844 58.3961 107.844ZM34.5801 98.5505C33.8453 98.5505 33.1538 98.2912 32.5486 97.859C28.9179 94.9198 25.7194 91.5052 23.126 87.7015C22.737 87.1396 22.5208 86.5345 22.5208 85.8861C22.5208 84.8056 23.0395 83.8114 23.9472 83.2063C25.3736 82.2122 27.4483 82.6012 28.4424 83.9843V84.0275C28.4857 84.0708 28.5289 84.1572 28.5721 84.2004C30.8197 87.4422 33.5428 90.3381 36.6116 92.7586C37.3464 93.3638 37.8219 94.2714 37.8219 95.2656C37.8219 96.0004 37.6058 96.7352 37.1303 97.3403C36.482 98.1183 35.5743 98.5505 34.5801 98.5505ZM20.1436 77.4576C18.7172 77.4576 17.4637 76.5499 17.0747 75.21C15.6916 70.758 15 66.1331 15 61.465V61.4218C15.0432 59.6496 16.4696 58.2233 18.2417 58.2233C20.0139 58.2233 21.4835 59.6928 21.4835 61.465C21.4835 65.528 22.0886 69.5045 23.2556 73.2649C23.3421 73.6107 23.3853 73.9133 23.3853 74.2591C23.3853 75.6422 22.4776 76.8957 21.0945 77.3279C20.7919 77.4144 20.4894 77.4576 20.1436 77.4576Z" fill="#A1C575"/>
<path d="M76.4796 53.1036V57.8025C75.4951 57.6682 74.3763 57.6011 73.1233 57.5787V53.1036C73.1233 46.0552 71.1318 41.3564 61.376 41.3564C51.6202 41.3564 49.6288 46.0552 49.6288 53.1036V57.5787C48.3758 57.6011 47.257 57.6682 46.2725 57.8025V53.1036C46.2725 46.6146 47.8388 38 61.376 38C74.9133 38 76.4796 46.6146 76.4796 53.1036Z" fill="#A1C575"/>
<path d="M76.4793 57.8025C75.4947 57.6682 74.3759 57.6011 73.1229 57.5787H49.6284C48.3754 57.6011 47.2566 57.6682 46.2721 57.8025C40.5663 58.4961 39 61.2931 39 68.7665V73.2417C39 82.192 41.2376 84.4295 50.1878 84.4295H72.5635C81.5138 84.4295 83.7513 82.192 83.7513 73.2417V68.7665C83.7513 61.2931 82.185 58.4961 76.4793 57.8025ZM54.0141 72.5928C53.5889 72.9955 53.0072 73.2417 52.4254 73.2417C52.1345 73.2417 51.8436 73.1746 51.5751 73.0627C51.2842 72.9508 51.0605 72.7942 50.8367 72.5928C50.434 72.1676 50.1878 71.5859 50.1878 71.0041C50.1878 70.7132 50.255 70.4223 50.3668 70.1538C50.4787 69.8853 50.6353 69.6392 50.8367 69.4154C51.0605 69.2141 51.2842 69.0574 51.5751 68.9456C52.403 68.5875 53.3876 68.7889 54.0141 69.4154C54.2155 69.6392 54.3721 69.8853 54.484 70.1538C54.5958 70.4223 54.663 70.7132 54.663 71.0041C54.663 71.5859 54.4168 72.1676 54.0141 72.5928ZM63.4342 71.8544C63.3224 72.1229 63.1657 72.369 62.9643 72.5928C62.5392 72.9955 61.9574 73.2417 61.3757 73.2417C60.7715 73.2417 60.2121 72.9955 59.787 72.5928C59.5856 72.369 59.429 72.1229 59.3171 71.8544C59.2052 71.5859 59.1381 71.295 59.1381 71.0041C59.1381 70.4 59.3842 69.8406 59.787 69.4154C60.6149 68.5875 62.1141 68.5875 62.9643 69.4154C63.3671 69.8406 63.6132 70.4 63.6132 71.0041C63.6132 71.295 63.5461 71.5859 63.4342 71.8544ZM71.9146 72.5928C71.4895 72.9955 70.9077 73.2417 70.3259 73.2417C69.7442 73.2417 69.1624 72.9955 68.7373 72.5928C68.3345 72.1676 68.0884 71.6083 68.0884 71.0041C68.0884 70.4 68.3345 69.8406 68.7373 69.4154C69.5875 68.5875 71.0867 68.5875 71.9146 69.4154C72.0041 69.5273 72.0936 69.6392 72.1831 69.7735C72.2726 69.8853 72.3398 70.0196 72.3845 70.1538C72.4516 70.2881 72.4964 70.4223 72.5188 70.5566C72.5411 70.7132 72.5635 70.8699 72.5635 71.0041C72.5635 71.5859 72.3174 72.1676 71.9146 72.5928Z" fill="#A1C575"/>
</svg>
