<svg width="116" height="116" viewBox="0 0 116 116" fill="none" xmlns="http://www.w3.org/2000/svg">
<g id="Group 53">
<circle id="Ellipse 4" opacity="0.2" cx="58" cy="58" r="58" fill="#BBBABB"/>
<g id="Group 52">
<path id="Vector 6" d="M39.8477 32.4237V25C39.8477 21.6863 42.5339 19 45.8477 19H79.0002C82.3139 19 85.0002 21.6863 85.0002 25V87.4407C85.0002 90.7544 82.3139 93.4407 79.0002 93.4407H43.7883C41.612 93.4407 39.8477 91.6764 39.8477 89.5V89.5" stroke="#A1C575" stroke-width="4"/>
<g id="&#240;&#159;&#166;&#134; icon &#34;pet&#34;">
<g id="Group">
<path id="Vector" d="M38.589 56.7777C46.7523 56.7777 54.573 63.3979 55.9206 71.4456C56.5245 75.1652 55.6194 78.5921 53.4581 81.1386C51.2891 83.6941 48.0855 85.1569 44.309 85.1569H32.3583C29.0622 85.1569 26.0824 83.8666 23.9764 81.5671L23.9764 81.5671L23.9695 81.5597C21.8351 79.2528 20.7876 76.187 21.0723 72.9019L21.0725 72.8987C21.8275 64.0223 29.6982 56.7777 38.589 56.7777Z" stroke="#A1C575" stroke-width="4"/>
<path id="Vector_2" d="M40.9033 43.5667C40.9033 46.5943 38.449 49.0486 35.4214 49.0486C32.3938 49.0486 29.9395 46.5943 29.9395 43.5667C29.9395 40.5391 32.3938 38.0847 35.4214 38.0847C38.449 38.0847 40.9033 40.5391 40.9033 43.5667Z" stroke="#A1C575" stroke-width="4"/>
<path id="Vector_3" d="M56.6596 47.8016C56.6596 50.1382 54.7655 52.0323 52.4289 52.0323C50.0923 52.0323 48.1982 50.1382 48.1982 47.8016C48.1982 45.4651 50.0923 43.5709 52.4289 43.5709C54.7655 43.5709 56.6596 45.4651 56.6596 47.8016Z" stroke="#A1C575" stroke-width="4"/>
<path id="Vector_4" d="M64.623 59.0188C64.623 60.6646 63.289 61.9985 61.6435 61.9985C59.9982 61.9985 58.6641 60.6645 58.6641 59.0188C58.6641 57.3735 59.9981 56.0395 61.6435 56.0395C63.2891 56.0395 64.623 57.3734 64.623 59.0188Z" stroke="#A1C575" stroke-width="4"/>
<path id="Vector_5" d="M23.4614 52.789C23.4614 55.1256 21.5672 57.0198 19.2307 57.0198C16.8942 57.0198 15 55.1256 15 52.789C15 50.4525 16.8942 48.5583 19.2307 48.5583C21.5672 48.5583 23.4614 50.4525 23.4614 52.789Z" stroke="#A1C575" stroke-width="4"/>
</g>
</g>
<g id="&#240;&#159;&#166;&#134; icon &#34;arrow right&#34;">
<g id="Group_2">
<path id="Vector_6" d="M40.1895 65.3729L47.1566 72.34L40.1895 79.3072" stroke="#A1C575" stroke-width="4" stroke-miterlimit="10" stroke-linecap="round" stroke-linejoin="round"/>
<path id="Vector_7" d="M27.6436 72.3401H46.9611" stroke="#A1C575" stroke-width="4" stroke-miterlimit="10" stroke-linecap="round" stroke-linejoin="round"/>
</g>
</g>
</g>
</g>
</svg>
