<svg width="96" height="96" viewBox="0 0 96 96" fill="none" xmlns="http://www.w3.org/2000/svg">
<g id="Group 51">
<circle id="Ellipse 3" cx="48" cy="48" r="48" fill="#FAFAFA"/>
<g id="&#240;&#159;&#166;&#134; icon &#34;pet&#34;">
<g id="Group">
<path id="Vector" d="M70.9899 59.9181C69.0896 48.5488 58.1712 39.3052 46.6409 39.3052C34.112 39.3052 23.097 49.4506 22.0341 61.9472C21.6154 66.7784 23.1614 71.3518 26.3499 74.7981C29.5063 78.2443 33.951 80.1445 38.7821 80.1445H53.8554C59.2985 80.1445 64.0652 78.0188 67.3182 74.1861C70.5712 70.3534 71.8595 65.2646 70.9899 59.9181Z" fill="#A1C575"/>
<path id="Vector_2" d="M42.6439 34.6019C47.8557 34.6019 52.0807 30.3768 52.0807 25.165C52.0807 19.9532 47.8557 15.7282 42.6439 15.7282C37.432 15.7282 33.207 19.9532 33.207 25.165C33.207 30.3768 37.432 34.6019 42.6439 34.6019Z" fill="#A1C575"/>
<path id="Vector_3" d="M64.095 38.3652C68.4353 38.3652 71.9537 34.8467 71.9537 30.5065C71.9537 26.1662 68.4353 22.6478 64.095 22.6478C59.7547 22.6478 56.2363 26.1662 56.2363 30.5065C56.2363 34.8467 59.7547 38.3652 64.095 38.3652Z" fill="#A1C575"/>
<path id="Vector_4" d="M75.718 50.9353C79.1868 50.9353 81.9985 48.1233 81.9985 44.6545C81.9985 41.186 79.1868 38.3742 75.718 38.3742C72.2496 38.3742 69.4375 41.186 69.4375 44.6545C69.4375 48.1233 72.2496 50.9353 75.718 50.9353Z" fill="#A1C575"/>
<path id="Vector_5" d="M22.2229 44.6557C26.5631 44.6557 30.0816 41.1372 30.0816 36.7969C30.0816 32.4567 26.5631 28.9382 22.2229 28.9382C17.8827 28.9382 14.3643 32.4567 14.3643 36.7969C14.3643 41.1372 17.8827 44.6557 22.2229 44.6557Z" fill="#A1C575"/>
</g>
<g id="&#240;&#159;&#166;&#134; icon &#34;lock&#34;">
<g id="Group_2">
<path id="Vector_6" d="M46.6573 67.935C48.0525 67.935 49.1837 66.804 49.1837 65.4086C49.1837 64.0133 48.0525 62.8822 46.6573 62.8822C45.262 62.8822 44.1309 64.0133 44.1309 65.4086C44.1309 66.804 45.262 67.935 46.6573 67.935Z" fill="#FAFAFA"/>
<path id="Vector_7" d="M56.3893 55.8147V53.8773C56.3893 49.6925 55.3818 44.1437 46.6556 44.1437C37.9295 44.1437 36.922 49.6925 36.922 53.8773V55.8147C32.5822 56.3572 31.1562 58.5581 31.1562 63.9674V66.8503C31.1562 73.2051 33.0937 75.1425 39.4484 75.1425H53.8629C60.2176 75.1425 62.155 73.2051 62.155 66.8503V63.9674C62.155 58.5581 60.7291 56.3572 56.3893 55.8147ZM46.6556 70.0897C44.0672 70.0897 41.9748 67.9818 41.9748 65.4089C41.9748 62.8205 44.0827 60.7281 46.6556 60.7281C49.2285 60.7281 51.3365 62.836 51.3365 65.4089C51.3365 67.9973 49.244 70.0897 46.6556 70.0897ZM39.4484 55.6753C39.3244 55.6753 39.2159 55.6753 39.0919 55.6753V53.8773C39.0919 49.336 40.3784 46.3136 46.6556 46.3136C52.9329 46.3136 54.2193 49.336 54.2193 53.8773V55.6908C54.0953 55.6908 53.9868 55.6908 53.8629 55.6908H39.4484V55.6753Z" fill="#FAFAFA"/>
</g>
</g>
</g>
</g>
</svg>
