<svg width="96" height="96" viewBox="0 0 96 96" fill="none" xmlns="http://www.w3.org/2000/svg">
<circle cx="48" cy="48" r="48" fill="#FAFAFA"/>
<path d="M29.2637 16.1842C26.2261 16.1842 23.7637 18.6467 23.7637 21.6842V76C23.7637 79.0376 26.2261 81.5 29.2637 81.5H59.5842C66.4878 81.5 72.0842 75.9036 72.0842 69V21.6842C72.0842 18.6467 69.6218 16.1842 66.5842 16.1842H29.2637Z" stroke="#A1C575" stroke-width="3"/>
<path d="M30.9277 29.0144H64.9182" stroke="#A1C575" stroke-width="3"/>
<path d="M30.9277 37.512H64.9182" stroke="#A1C575" stroke-width="3"/>
<path d="M30.3164 45.4737H51.7901" stroke="#A1C575" stroke-width="3"/>
<path d="M51.79 81.7703C57.4551 81.2038 58.5173 75.7512 58.5173 69.7321C61.7039 70.4402 67.7231 70.7943 71.9719 64.4211" stroke="#A1C575" stroke-width="3"/>
<path d="M51.4569 67.2578C50.7918 63.278 46.9699 60.0424 42.9338 60.0424C38.5482 60.0424 34.6925 63.5937 34.3204 67.968C34.1739 69.6591 34.715 71.26 35.8312 72.4664C36.936 73.6727 38.4918 74.3378 40.1829 74.3378H45.4592C47.3645 74.3378 49.033 73.5938 50.1717 72.2522C51.3104 70.9105 51.7613 69.1293 51.4569 67.2578Z" fill="#A1C575"/>
<path d="M41.5347 58.3961C43.3591 58.3961 44.838 56.9171 44.838 55.0928C44.838 53.2684 43.3591 51.7895 41.5347 51.7895C39.7104 51.7895 38.2314 53.2684 38.2314 55.0928C38.2314 56.9171 39.7104 58.3961 41.5347 58.3961Z" fill="#A1C575"/>
<path d="M49.0438 59.7134C50.5631 59.7134 51.7947 58.4817 51.7947 56.9625C51.7947 55.4432 50.5631 54.2116 49.0438 54.2116C47.5245 54.2116 46.293 55.4432 46.293 56.9625C46.293 58.4817 47.5245 59.7134 49.0438 59.7134Z" fill="#A1C575"/>
<path d="M53.1125 64.1134C54.3267 64.1134 55.3109 63.1291 55.3109 61.9149C55.3109 60.7008 54.3267 59.7165 53.1125 59.7165C51.8984 59.7165 50.9141 60.7008 50.9141 61.9149C50.9141 63.1291 51.8984 64.1134 53.1125 64.1134Z" fill="#A1C575"/>
<path d="M34.3866 61.9153C35.9058 61.9153 37.1375 60.6837 37.1375 59.1644C37.1375 57.6452 35.9058 56.4136 34.3866 56.4136C32.8673 56.4136 31.6357 57.6452 31.6357 59.1644C31.6357 60.6837 32.8673 61.9153 34.3866 61.9153Z" fill="#A1C575"/>
</svg>
